<?xml version="1.0" standalone="no"?>
<!DOCTYPE svg PUBLIC "-//W3C//DTD SVG 20010904//EN"
 "http://www.w3.org/TR/2001/REC-SVG-20010904/DTD/svg10.dtd">
<svg version="1.0" xmlns="http://www.w3.org/2000/svg"
 width="900.000000pt" height="900.000000pt" viewBox="0 0 900.000000 900.000000"
 preserveAspectRatio="xMidYMid meet">
<metadata>
Created by potrace 1.11, written by Peter Selinger 2001-2013
</metadata>
<g transform="translate(0.000000,900.000000) scale(0.100000,-0.100000)"
fill="#000000" stroke="none">
<path d="M4462 8442 c-32 -103 -139 -435 -262 -817 -119 -366 -139 -431 -146
-457 -6 -28 -33 -40 -114 -55 -94 -16 -309 -81 -429 -130 -206 -83 -382 -180
-581 -321 -268 -189 -564 -515 -734 -807 l-18 -31 -1037 1038 c-929 929 -1041
1038 -1069 1038 -34 0 -59 -20 -68 -55 -4 -15 18 -106 61 -247 36 -123 81
-275 100 -338 19 -63 118 -394 220 -735 327 -1086 576 -1917 605 -2015 70
-235 87 -291 167 -555 46 -154 86 -287 88 -295 20 -86 194 -640 216 -687 16
-34 35 -78 43 -98 9 -20 41 -75 72 -123 46 -72 131 -162 502 -533 246 -245
466 -458 488 -473 100 -65 125 -51 398 219 l216 215 38 -23 c172 -107 566
-249 782 -283 43 -7 44 -7 63 -69 18 -59 148 -465 217 -680 71 -218 94 -290
156 -485 54 -168 74 -215 74 -176 0 10 11 50 24 89 14 40 61 187 106 327 45
140 90 280 100 310 16 49 171 529 204 635 l13 40 99 22 c259 57 427 117 658
234 l110 55 214 -212 c238 -237 277 -265 342 -245 21 6 56 26 78 44 22 17 236
228 475 467 501 501 501 501 613 762 25 58 238 747 260 838 2 8 24 83 50 165
25 83 49 164 54 180 6 25 429 1436 475 1585 8 25 24 79 36 120 12 41 32 109
45 150 12 41 32 109 44 150 12 41 33 109 46 150 40 128 187 620 209 700 2 8
50 166 106 350 135 445 134 443 119 480 -14 33 -38 44 -78 35 -19 -4 -340
-319 -1056 -1035 -565 -567 -1031 -1030 -1035 -1030 -3 1 -30 41 -60 90 -183
299 -461 587 -772 798 -133 90 -437 252 -473 252 -7 0 -16 4 -21 9 -9 8 -236
88 -273 96 -9 2 -44 10 -77 19 -33 8 -73 18 -90 21 -16 3 -45 9 -64 13 l-33 7
-59 180 c-33 99 -61 187 -62 195 -2 8 -26 85 -54 170 -43 129 -173 532 -255
790 -12 36 -24 68 -27 72 -3 3 -21 -42 -39 -100z"/>
</g>
</svg>
