<?xml version="1.0" standalone="no"?>
<!DOCTYPE svg PUBLIC "-//W3C//DTD SVG 20010904//EN"
 "http://www.w3.org/TR/2001/REC-SVG-20010904/DTD/svg10.dtd">
<svg version="1.0" xmlns="http://www.w3.org/2000/svg"
 width="800.000000pt" height="800.000000pt" viewBox="0 0 800.000000 800.000000"
 preserveAspectRatio="xMidYMid meet">
<metadata>
Created by potrace 1.11, written by Peter Selinger 2001-2013
</metadata>
<g transform="translate(0.000000,800.000000) scale(0.100000,-0.100000)"
fill="#000000" stroke="none">
<path d="M3779 7996 c-2 -2 -47 -6 -99 -10 -52 -4 -106 -8 -120 -11 -14 -2
-46 -7 -73 -9 -26 -3 -73 -10 -105 -15 -31 -6 -75 -13 -97 -17 -22 -3 -42 -7
-45 -9 -3 -2 -26 -6 -50 -10 -146 -22 -544 -145 -725 -224 -11 -5 -49 -22 -85
-37 -82 -36 -317 -156 -370 -189 -22 -14 -42 -25 -45 -25 -3 0 -18 -8 -33 -19
-15 -10 -79 -53 -142 -95 -131 -87 -160 -107 -176 -121 -7 -5 -50 -39 -97 -75
-47 -36 -88 -70 -91 -76 -2 -7 365 -381 817 -833 l821 -821 50 31 c441 265
944 323 1419 165 139 -47 233 -92 373 -177 l31 -19 818 819 c450 450 817 822
815 827 -2 9 -69 68 -129 114 -77 59 -278 200 -301 212 -14 7 -32 17 -40 24
-47 36 -312 179 -450 242 -246 112 -570 221 -800 268 -112 24 -113 24 -145 29
-16 3 -41 7 -55 10 -51 9 -121 19 -220 30 -30 3 -73 8 -95 11 -48 6 -551 14
-556 10z"/>
<path d="M3 5459 c2 -998 7 -1827 10 -1844 3 -16 8 -62 11 -100 4 -39 8 -80
10 -90 2 -11 7 -42 10 -70 4 -27 8 -61 11 -75 2 -14 7 -41 9 -60 6 -34 10 -60
21 -110 30 -141 29 -138 60 -250 134 -496 395 -989 720 -1365 28 -32 58 -67
68 -79 66 -77 263 -268 372 -361 39 -33 72 -62 75 -65 41 -42 340 -261 471
-346 57 -37 127 -82 156 -101 28 -18 58 -36 67 -39 11 -4 290 269 971 949
l956 956 954 -955 c525 -525 958 -954 963 -954 9 0 27 11 232 145 194 126 500
361 620 474 181 172 318 316 411 431 285 354 479 708 620 1130 34 102 94 322
106 390 2 14 10 57 18 95 8 39 17 90 20 115 3 25 10 72 15 105 5 33 12 89 15
125 4 36 9 85 12 110 4 25 8 857 10 1849 l4 1803 -1251 -1250 c-687 -688
-1250 -1252 -1250 -1255 0 -2 16 -38 35 -79 139 -302 184 -676 120 -998 -3
-14 -7 -34 -9 -45 -10 -50 -39 -152 -62 -218 -31 -86 -119 -266 -149 -303
l-21 -27 -707 707 -707 707 -705 -705 c-389 -388 -709 -706 -713 -706 -19 0
-131 230 -175 360 -63 184 -90 356 -90 558 1 220 55 467 149 671 l37 81 -1252
1251 -1252 1252 4 -1814z"/>
<path d="M3470 689 c-291 -292 -530 -534 -530 -537 0 -8 232 -65 355 -87 259
-46 423 -60 710 -60 181 0 386 10 425 20 8 2 42 6 75 10 33 3 69 8 80 10 11 3
36 7 55 9 109 16 420 88 420 98 0 4 -238 246 -530 537 l-530 530 -530 -530z"/>
</g>
</svg>
